<svg width="227" height="53" viewBox="0 0 227 53" fill="none" xmlns="http://www.w3.org/2000/svg">
<path d="M72.6619 24.4347H69.4744C69.3835 23.9119 69.2159 23.4489 68.9716 23.0455C68.7273 22.6364 68.4233 22.2898 68.0597 22.0057C67.696 21.7216 67.2813 21.5085 66.8153 21.3665C66.3551 21.2188 65.858 21.1449 65.3239 21.1449C64.375 21.1449 63.5341 21.3835 62.8011 21.8608C62.0682 22.3324 61.4943 23.0256 61.0795 23.9403C60.6648 24.8494 60.4574 25.9602 60.4574 27.2727C60.4574 28.608 60.6648 29.733 61.0795 30.6477C61.5 31.5568 62.0739 32.2443 62.8011 32.7102C63.5341 33.1705 64.3722 33.4006 65.3153 33.4006C65.8381 33.4006 66.3267 33.3324 66.7812 33.196C67.2415 33.054 67.6534 32.8466 68.017 32.5739C68.3864 32.3011 68.696 31.9659 68.946 31.5682C69.2017 31.1705 69.3778 30.7159 69.4744 30.2045L72.6619 30.2216C72.5426 31.0511 72.2841 31.8295 71.8864 32.5568C71.4943 33.2841 70.9801 33.9261 70.3438 34.483C69.7074 35.0341 68.9631 35.4659 68.1108 35.7784C67.2585 36.0852 66.3125 36.2386 65.2727 36.2386C63.7386 36.2386 62.3693 35.8835 61.1648 35.1733C59.9602 34.4631 59.0114 33.4375 58.3182 32.0966C57.625 30.7557 57.2784 29.1477 57.2784 27.2727C57.2784 25.392 57.6278 23.7841 58.3267 22.4489C59.0256 21.108 59.9773 20.0824 61.1818 19.3722C62.3864 18.6619 63.75 18.3068 65.2727 18.3068C66.2443 18.3068 67.1477 18.4432 67.983 18.7159C68.8182 18.9886 69.5625 19.3892 70.2159 19.9176C70.8693 20.4403 71.4063 21.0824 71.8267 21.8438C72.2528 22.5994 72.5313 23.4631 72.6619 24.4347ZM79.1882 36.2642C78.3587 36.2642 77.6115 36.1165 76.9467 35.821C76.2876 35.5199 75.7649 35.0767 75.3786 34.4915C74.9979 33.9062 74.8075 33.1847 74.8075 32.3267C74.8075 31.5881 74.9439 30.9773 75.2166 30.4943C75.4893 30.0114 75.8615 29.625 76.3331 29.3352C76.8047 29.0455 77.3359 28.8267 77.9268 28.679C78.5234 28.5256 79.1399 28.4148 79.7763 28.3466C80.5433 28.267 81.1655 28.196 81.6428 28.1335C82.12 28.0653 82.4666 27.9631 82.6825 27.8267C82.9041 27.6847 83.0149 27.4659 83.0149 27.1705V27.1193C83.0149 26.4773 82.8246 25.9801 82.4439 25.6278C82.0632 25.2756 81.5149 25.0994 80.799 25.0994C80.0433 25.0994 79.4439 25.2642 79.0007 25.5938C78.5632 25.9233 78.2678 26.3125 78.1143 26.7614L75.2337 26.3523C75.4609 25.5568 75.8359 24.892 76.3587 24.358C76.8814 23.8182 77.5206 23.4148 78.2763 23.1477C79.032 22.875 79.8672 22.7386 80.782 22.7386C81.4126 22.7386 82.0405 22.8125 82.6655 22.9602C83.2905 23.108 83.8615 23.3523 84.3786 23.6932C84.8956 24.0284 85.3104 24.4858 85.6229 25.0653C85.9411 25.6449 86.1001 26.3693 86.1001 27.2386V36H83.1342V34.2017H83.032C82.8445 34.5653 82.5803 34.9062 82.2393 35.2244C81.9041 35.5369 81.4808 35.7898 80.9695 35.983C80.4638 36.1705 79.87 36.2642 79.1882 36.2642ZM79.9893 33.9972C80.6087 33.9972 81.1456 33.875 81.6001 33.6307C82.0547 33.3807 82.4041 33.0511 82.6484 32.642C82.8984 32.233 83.0234 31.7869 83.0234 31.304V29.7614C82.9268 29.8409 82.7621 29.9148 82.5291 29.983C82.3018 30.0511 82.0462 30.1108 81.7621 30.1619C81.478 30.2131 81.1967 30.2585 80.9183 30.2983C80.6399 30.3381 80.3984 30.3722 80.1939 30.4006C79.7337 30.4631 79.3217 30.5653 78.9581 30.7074C78.5945 30.8494 78.3075 31.0483 78.0973 31.304C77.8871 31.554 77.782 31.8778 77.782 32.2756C77.782 32.8438 77.9893 33.2727 78.4041 33.5625C78.8189 33.8523 79.3473 33.9972 79.9893 33.9972ZM92.2876 28.3295V36H89.2024V22.9091H92.1513V25.1335H92.3047C92.6058 24.4006 93.0859 23.8182 93.745 23.3864C94.4098 22.9545 95.2308 22.7386 96.2081 22.7386C97.1115 22.7386 97.8984 22.9318 98.5689 23.3182C99.245 23.7045 99.7678 24.2642 100.137 24.9972C100.512 25.7301 100.697 26.6193 100.691 27.6648V36H97.6058V28.142C97.6058 27.267 97.3786 26.5824 96.924 26.0881C96.4751 25.5937 95.853 25.3466 95.0575 25.3466C94.5178 25.3466 94.0376 25.4659 93.6172 25.7045C93.2024 25.9375 92.8757 26.2756 92.6371 26.7188C92.4041 27.1619 92.2876 27.6989 92.2876 28.3295ZM115.052 22.9091L110.39 36H106.981L102.319 22.9091H105.609L108.617 32.6335H108.754L111.771 22.9091H115.052ZM120.579 36.2642C119.749 36.2642 119.002 36.1165 118.337 35.821C117.678 35.5199 117.156 35.0767 116.769 34.4915C116.388 33.9062 116.198 33.1847 116.198 32.3267C116.198 31.5881 116.335 30.9773 116.607 30.4943C116.88 30.0114 117.252 29.625 117.724 29.3352C118.195 29.0455 118.727 28.8267 119.317 28.679C119.914 28.5256 120.531 28.4148 121.167 28.3466C121.934 28.267 122.556 28.196 123.033 28.1335C123.511 28.0653 123.857 27.9631 124.073 27.8267C124.295 27.6847 124.406 27.4659 124.406 27.1705V27.1193C124.406 26.4773 124.215 25.9801 123.835 25.6278C123.454 25.2756 122.906 25.0994 122.19 25.0994C121.434 25.0994 120.835 25.2642 120.391 25.5938C119.954 25.9233 119.658 26.3125 119.505 26.7614L116.624 26.3523C116.852 25.5568 117.227 24.892 117.749 24.358C118.272 23.8182 118.911 23.4148 119.667 23.1477C120.423 22.875 121.258 22.7386 122.173 22.7386C122.803 22.7386 123.431 22.8125 124.056 22.9602C124.681 23.108 125.252 23.3523 125.769 23.6932C126.286 24.0284 126.701 24.4858 127.013 25.0653C127.332 25.6449 127.491 26.3693 127.491 27.2386V36H124.525V34.2017H124.423C124.235 34.5653 123.971 34.9062 123.63 35.2244C123.295 35.5369 122.871 35.7898 122.36 35.983C121.854 36.1705 121.261 36.2642 120.579 36.2642ZM121.38 33.9972C121.999 33.9972 122.536 33.875 122.991 33.6307C123.445 33.3807 123.795 33.0511 124.039 32.642C124.289 32.233 124.414 31.7869 124.414 31.304V29.7614C124.317 29.8409 124.153 29.9148 123.92 29.983C123.692 30.0511 123.437 30.1108 123.153 30.1619C122.869 30.2131 122.587 30.2585 122.309 30.2983C122.031 30.3381 121.789 30.3722 121.585 30.4006C121.124 30.4631 120.712 30.5653 120.349 30.7074C119.985 30.8494 119.698 31.0483 119.488 31.304C119.278 31.554 119.173 31.8778 119.173 32.2756C119.173 32.8438 119.38 33.2727 119.795 33.5625C120.21 33.8523 120.738 33.9972 121.38 33.9972ZM140.94 26.3693L138.127 26.6761C138.048 26.392 137.908 26.125 137.71 25.875C137.516 25.625 137.255 25.4233 136.925 25.2699C136.596 25.1165 136.192 25.0398 135.715 25.0398C135.073 25.0398 134.533 25.179 134.096 25.4574C133.664 25.7358 133.451 26.0966 133.457 26.5398C133.451 26.9205 133.59 27.2301 133.874 27.4688C134.164 27.7074 134.641 27.9034 135.306 28.0568L137.539 28.5341C138.778 28.8011 139.698 29.2244 140.3 29.804C140.908 30.3835 141.215 31.142 141.221 32.0795C141.215 32.9034 140.974 33.6307 140.496 34.2614C140.025 34.8864 139.369 35.375 138.528 35.7273C137.687 36.0795 136.721 36.2557 135.63 36.2557C134.028 36.2557 132.738 35.9205 131.761 35.25C130.783 34.5739 130.201 33.6335 130.013 32.429L133.022 32.1392C133.158 32.7301 133.448 33.1761 133.891 33.4773C134.335 33.7784 134.911 33.929 135.621 33.929C136.354 33.929 136.942 33.7784 137.386 33.4773C137.835 33.1761 138.059 32.804 138.059 32.3608C138.059 31.9858 137.914 31.6761 137.624 31.4318C137.34 31.1875 136.897 31 136.295 30.8693L134.062 30.4006C132.806 30.1392 131.877 29.6989 131.275 29.0795C130.673 28.4545 130.374 27.6648 130.38 26.7102C130.374 25.9034 130.593 25.2045 131.036 24.6136C131.485 24.017 132.107 23.5568 132.903 23.233C133.704 22.9034 134.627 22.7386 135.673 22.7386C137.207 22.7386 138.414 23.0653 139.295 23.7188C140.181 24.3722 140.729 25.2557 140.94 26.3693ZM150.05 36V18.5455H152.684V33.733H160.593V36H150.05ZM167.202 36.2898C166.373 36.2898 165.623 36.1364 164.952 35.8295C164.282 35.517 163.751 35.0653 163.359 34.4744C162.972 33.8835 162.779 33.1591 162.779 32.3011C162.779 31.5625 162.921 30.9545 163.205 30.4773C163.489 30 163.873 29.6222 164.356 29.3438C164.839 29.0653 165.379 28.8551 165.975 28.7131C166.572 28.571 167.18 28.4631 167.799 28.3892C168.583 28.2983 169.219 28.2244 169.708 28.1676C170.197 28.1051 170.552 28.0057 170.773 27.8693C170.995 27.733 171.106 27.5114 171.106 27.2045V27.1449C171.106 26.4006 170.896 25.8239 170.475 25.4148C170.06 25.0057 169.441 24.8011 168.617 24.8011C167.759 24.8011 167.083 24.9915 166.589 25.3722C166.1 25.7472 165.762 26.1648 165.575 26.625L163.18 26.0795C163.464 25.2841 163.879 24.642 164.424 24.1534C164.975 23.6591 165.609 23.3011 166.325 23.0795C167.04 22.8523 167.793 22.7386 168.583 22.7386C169.106 22.7386 169.66 22.8011 170.245 22.9261C170.836 23.0455 171.387 23.267 171.898 23.5909C172.415 23.9148 172.839 24.3778 173.168 24.9801C173.498 25.5767 173.663 26.3523 173.663 27.3068V36H171.174V34.2102H171.072C170.907 34.5398 170.66 34.8636 170.33 35.1818C170.001 35.5 169.577 35.7642 169.06 35.9744C168.543 36.1847 167.924 36.2898 167.202 36.2898ZM167.756 34.2443C168.461 34.2443 169.063 34.1051 169.563 33.8267C170.069 33.5483 170.452 33.1847 170.714 32.7358C170.981 32.2812 171.114 31.7955 171.114 31.2784V29.5909C171.023 29.6818 170.847 29.767 170.586 29.8466C170.33 29.9205 170.038 29.9858 169.708 30.0426C169.379 30.0937 169.058 30.142 168.745 30.1875C168.433 30.2273 168.171 30.2614 167.961 30.2898C167.467 30.3523 167.015 30.4574 166.606 30.6051C166.202 30.7528 165.879 30.9659 165.634 31.2443C165.396 31.517 165.276 31.8807 165.276 32.3352C165.276 32.9659 165.509 33.4432 165.975 33.767C166.441 34.0852 167.035 34.2443 167.756 34.2443ZM179.605 28.2273V36H177.057V22.9091H179.503V25.0398H179.665C179.966 24.3466 180.438 23.7898 181.08 23.3693C181.727 22.9489 182.543 22.7386 183.526 22.7386C184.418 22.7386 185.199 22.9261 185.869 23.3011C186.54 23.6705 187.06 24.2216 187.429 24.9545C187.798 25.6875 187.983 26.5937 187.983 27.6733V36H185.435V27.9801C185.435 27.0312 185.188 26.2898 184.693 25.7557C184.199 25.2159 183.52 24.946 182.656 24.946C182.065 24.946 181.54 25.0739 181.08 25.3295C180.625 25.5852 180.264 25.9602 179.997 26.4545C179.736 26.9432 179.605 27.5341 179.605 28.2273ZM196.915 36.2642C195.648 36.2642 194.557 35.9773 193.642 35.4034C192.733 34.8239 192.034 34.0256 191.545 33.0085C191.057 31.9915 190.812 30.8267 190.812 29.5142C190.812 28.1847 191.062 27.0114 191.562 25.9943C192.062 24.9716 192.767 24.1733 193.676 23.5994C194.585 23.0256 195.656 22.7386 196.889 22.7386C197.884 22.7386 198.77 22.9233 199.548 23.2926C200.327 23.6562 200.955 24.1676 201.432 24.8267C201.915 25.4858 202.202 26.2557 202.293 27.1364H199.812C199.676 26.5227 199.364 25.9943 198.875 25.5511C198.392 25.108 197.744 24.8864 196.932 24.8864C196.222 24.8864 195.599 25.0739 195.065 25.4489C194.537 25.8182 194.125 26.3466 193.83 27.0341C193.534 27.7159 193.386 28.5227 193.386 29.4545C193.386 30.4091 193.531 31.233 193.821 31.9261C194.111 32.6193 194.52 33.1562 195.048 33.5369C195.582 33.9176 196.21 34.108 196.932 34.108C197.415 34.108 197.852 34.0199 198.244 33.8438C198.642 33.6619 198.974 33.4034 199.241 33.0682C199.514 32.733 199.705 32.3295 199.812 31.858H202.293C202.202 32.7045 201.926 33.4602 201.466 34.125C201.006 34.7898 200.389 35.3125 199.616 35.6932C198.849 36.0739 197.949 36.2642 196.915 36.2642ZM210.66 36.2642C209.37 36.2642 208.259 35.9886 207.327 35.4375C206.401 34.8807 205.685 34.0994 205.18 33.0938C204.68 32.0824 204.43 30.8977 204.43 29.5398C204.43 28.1989 204.68 27.017 205.18 25.9943C205.685 24.9716 206.39 24.1733 207.293 23.5994C208.202 23.0256 209.265 22.7386 210.481 22.7386C211.219 22.7386 211.935 22.8608 212.629 23.1051C213.322 23.3494 213.944 23.733 214.495 24.2557C215.046 24.7784 215.481 25.4574 215.799 26.2926C216.117 27.1222 216.276 28.1307 216.276 29.3182V30.2216H205.87V28.3125H213.779C213.779 27.642 213.643 27.0483 213.37 26.5312C213.097 26.0085 212.714 25.5966 212.219 25.2955C211.731 24.9943 211.157 24.8438 210.498 24.8438C209.782 24.8438 209.157 25.0199 208.623 25.3722C208.094 25.7187 207.685 26.1733 207.396 26.7358C207.112 27.2926 206.969 27.8977 206.969 28.5511V30.0426C206.969 30.9176 207.123 31.6619 207.43 32.2756C207.742 32.8892 208.177 33.358 208.734 33.6818C209.29 34 209.941 34.1591 210.685 34.1591C211.168 34.1591 211.609 34.0909 212.006 33.9545C212.404 33.8125 212.748 33.6023 213.038 33.3239C213.327 33.0455 213.549 32.7017 213.702 32.2926L216.114 32.7273C215.921 33.4375 215.575 34.0597 215.075 34.5938C214.58 35.1222 213.958 35.5341 213.208 35.8295C212.464 36.1193 211.614 36.2642 210.66 36.2642ZM219.104 36V22.9091H221.567V24.9886H221.703C221.942 24.2841 222.362 23.7301 222.964 23.3267C223.572 22.9176 224.26 22.7131 225.027 22.7131C225.186 22.7131 225.374 22.7187 225.589 22.7301C225.811 22.7415 225.984 22.7557 226.109 22.7727V25.2102C226.007 25.1818 225.825 25.1506 225.564 25.1165C225.303 25.0767 225.041 25.0568 224.78 25.0568C224.178 25.0568 223.641 25.1847 223.169 25.4403C222.703 25.6903 222.334 26.0398 222.061 26.4886C221.788 26.9318 221.652 27.4375 221.652 28.0057V36H219.104Z" fill="white"/>
<path d="M16.2537 11.6243C20.5582 7.70479 25.5971 5.90168 31.3897 6.23417C37.2845 6.57305 41.953 9.30969 45.9318 13.7663C47.3432 12.2509 48.6205 10.8762 49.9936 9.4056C49.8595 9.23296 49.7126 9.06032 49.5721 8.89408L48.6461 9.12426L48.8504 8.06285C46.0978 5.04488 42.6491 2.85813 38.9194 1.53456L37.8976 2.85173L38.1786 1.29159C35.5793 0.447581 32.865 0.019182 30.1571 0L29.7548 1.88623L29.0395 0.012788C25.8398 0.12788 22.6849 0.818434 19.811 2.09724C19.696 2.14839 19.5874 2.21233 19.4789 2.26348L19.5874 3.46556L18.7636 2.6727L14.0248 5.73543L15.7619 10.3455C15.8769 10.7739 16.0365 11.1959 16.2409 11.6115L16.2537 11.6243Z" fill="#FF3839"/>
<path d="M23.0426 9.96828C21.3246 10.7867 20.1495 11.4964 19.3767 12.2573V12.1422L17.2053 13.7216L19.9196 19.4378C19.9387 19.4698 19.9515 19.5018 19.9771 19.5465C25.9165 12.2957 34.8704 13.2612 39.7242 19.2012C41.1803 17.8201 42.63 16.4454 44.0542 15.0899C39.2452 8.5488 30.4062 6.46435 23.0426 9.96828Z" fill="#FF3839"/>
<path d="M44.7758 40.5061C40.7204 44.6814 35.8028 46.7914 29.9975 46.8106C24.0963 46.8298 19.2617 44.3873 15.0211 40.1864C13.7055 41.7849 12.5112 43.2364 11.2339 44.7901C11.3808 44.9563 11.5341 45.1162 11.6873 45.276L12.5942 44.9883L12.4537 46.0561C15.3851 48.9014 18.9616 50.8708 22.7679 51.9642L23.7067 50.5895L23.5215 52.1688C26.1656 52.8402 28.9054 53.1023 31.6069 52.9553L31.8942 51.0498L32.7181 52.8721C35.905 52.5588 39.0088 51.6828 41.7997 50.225C41.9147 50.1675 42.0169 50.0971 42.1191 50.0332L41.9338 48.8439L42.8024 49.5856L47.3432 46.2351L45.3251 41.7401C45.1846 41.3181 44.9994 40.9089 44.7695 40.5061H44.7758Z" fill="#FF3839"/>
<path d="M20.8903 34.3806C19.5236 35.8512 18.1568 37.3155 16.8157 38.7541C22.0207 44.9883 30.9682 46.5293 38.1019 42.5714C39.7688 41.6506 43.6965 38.4664 43.6965 38.4664L40.6374 32.9292C40.6118 32.8972 40.599 32.8652 40.5735 32.8269C35.0875 40.4294 26.0889 40.0137 20.8839 34.3806H20.8903Z" fill="#FF3839"/>
<path d="M12.3579 7.13571C10.9593 8.536 9.76501 9.94908 8.76233 11.3622L10.327 12.8456L8.24502 12.1103C6.21411 15.1602 5.02622 18.191 4.43227 21.1066L5.92671 21.9059L4.25983 22.0657C3.69782 25.5569 3.96605 28.8562 4.62387 31.7719L7.95124 31.5353L4.82823 32.6223C5.67764 35.9152 6.98688 38.6646 8.07258 40.57L9.59896 39.2529L8.45577 41.2222C9.32434 42.6673 9.96938 43.4857 9.96938 43.4857L21.7142 26.7973L12.3515 7.13571H12.3579Z" fill="#FF3839"/>
</svg>
