<svg width="147" height="22" viewBox="0 0 147 22" fill="none" xmlns="http://www.w3.org/2000/svg">
<path d="M11.4455 0.144043L14.2444 6.8734L21.5093 7.45583L15.9742 12.1972L17.6653 19.2865L11.4455 15.4875L5.22571 19.2865L6.91677 12.1972L1.38168 7.45583L8.64658 6.8734L11.4455 0.144043Z" fill="#FF3839"/>
<path d="M42.6867 0.144043L45.4856 6.8734L52.7505 7.45583L47.2154 12.1972L48.9065 19.2865L42.6867 15.4875L36.4669 19.2865L38.158 12.1972L32.6229 7.45583L39.8878 6.8734L42.6867 0.144043Z" fill="#FF3839"/>
<path d="M73.9279 0.144043L76.7268 6.8734L83.9917 7.45583L78.4566 12.1972L80.1477 19.2865L73.9279 15.4875L67.7081 19.2865L69.3992 12.1972L63.8641 7.45583L71.129 6.8734L73.9279 0.144043Z" fill="#FF3839"/>
<path d="M105.169 0.144043L107.968 6.8734L115.233 7.45583L109.698 12.1972L111.389 19.2865L105.169 15.4875L98.9495 19.2865L100.641 12.1972L95.1054 7.45583L102.37 6.8734L105.169 0.144043Z" fill="#FF3839"/>
<path d="M136.41 0.144043L139.209 6.8734L146.474 7.45583L140.939 12.1972L142.63 19.2865L136.41 15.4875L130.191 19.2865L131.882 12.1972L126.347 7.45583L133.612 6.8734L136.41 0.144043Z" fill="#FF3839"/>
</svg>
